# xmcd
#
# Track frame offsets:
#	150
#	18847
#	40200
#	56982
#	73967
#	93182
#	113767
#	133795
#	158812
#	177457
#	198395
#	223852
#	240382
#	259030
#
# Disc length: 3755
#
# Revision: 1
# Processed by: cddbd v1.5.1PL0 Copyright (c) Steve Scherf et al.
# Submitted via: CDex 1.40Beta6
# Normalized: r0:DSETVAR1,TDELIM( - )
#
DISCID=ca0ea90e
DTITLE=Various Artist - New Blues Blood
DYEAR=2000
DGENRE=Blues
TTITLE0=Johnny Lang - Lie To Me
TTITLE1=Susan Tedeschi - Just won't Burn
TTITLE2=Bernard Allison - The River's Rising
TTITLE3=Michael Hill's Blues Mob - Young Folk's Blues
TTITLE4=James Armstong - Slender Man Blues
TTITLE5=Popa Chubby - Shakedown
TTITLE6=Indigenous - Got To Tell You
TTITLE7=Alvin Youngblood Hart - Mama Don't Allow
TTITLE8=Sue Foley - Highwayside
TTITLE9=Mike welch - As Good As Gone
TTITLE10=The Keller Brothers band - All Your Love
TTITLE11=Deborah Coleman - LookWhat You Do To Me
TTITLE12=Big Sugar - Ride Like Hell
TTITLE13=Chris Duarte Group - Cleopatra
EXTD=
EXTT0=
EXTT1=
EXTT2=
EXTT3=
EXTT4=
EXTT5=
EXTT6=
EXTT7=
EXTT8=
EXTT9=
EXTT10=
EXTT11=
EXTT12=
EXTT13=
PLAYORDER=
